<svg data-v-0dd9719b="" version="1.0" xmlns="http://www.w3.org/2000/svg" xmlns:xlink="http://www.w3.org/1999/xlink" width="100%" height="100%" viewBox="0 0 340.000000 250.000000" preserveAspectRatio="xMidYMid meet" color-interpolation-filters="sRGB" style="margin: auto;"> <rect data-v-0dd9719b="" x="0" y="0" width="100%" height="100%" fill="#fff" fill-opacity="1" class="background"></rect> <rect data-v-0dd9719b="" x="0" y="0" width="100%" height="100%" fill="url(#watermark)" fill-opacity="1" class="watermarklayer"></rect> <g data-v-0dd9719b="" fill="#333333" class="icon-text-wrapper icon-svg-group iconsvg" transform="translate(50.980003356933594,96.79390716552734)"><g class="iconsvg-imagesvg" transform="translate(0,0)"><g><rect fill="#333333" fill-opacity="0" stroke-width="2" x="0" y="0" width="60" height="56.4121850319669" class="image-rect"></rect> <svg x="0" y="0" width="60" height="56.4121850319669" filtersec="colorsb5286101057" class="image-svg-svg primary" style="overflow: visible;"><svg xmlns="http://www.w3.org/2000/svg" viewBox="0 0 106.36000061035156 100"><g><g><path fill="#02035e" d="M31.46 8.31L0 0v100l31.46-8.31 11.97-3.17V11.48L31.46 8.31z"></path><path fill="#00b0d8" opacity=".8" d="M62.93 8.31L31.46 0v100l31.47-8.31 11.96-3.17V11.48L62.93 8.31z"></path><path fill="#00b0d8" opacity=".5" d="M62.93 0v100l43.43-11.48V11.48L62.93 0z"></path></g></g></svg></svg> <!----></g></g> <g transform="translate(67,0.4798431396484375)"><g data-gra="path-name" fill-rule="" class="tp-name iconsvg-namesvg" transform="translate(0,0)"><g transform="scale(1)"><g><path d="M12.76-36.9L12.76-40.46 40.5-40.46 40.5-36.9 28.88-25.79 28.88-10.1Q28.88-7.24 27.47-4.93L27.47-4.93 22.85-4.93Q24.38-7.2 24.38-10.1L24.38-10.1 24.38-27.08 34.71-36.9 12.76-36.9ZM10.53 0L10.53-3.56 40.5-3.56 40.5 0 10.53 0ZM4.5-27.43L4.5-31.03 6.03-31.03 10.53-31.03 10.53-27.43 10.53-5.17Q10.53-2.31 9.12 0L9.12 0 4.5 0Q6.03-2.27 6.03-5.17L6.03-5.17 6.03-27.43 4.5-27.43ZM9.12-40.46L11.9-33.26 7.28-33.26 4.5-40.46 9.12-40.46ZM85.5-22.5L69.77-22.5 69.77-5.17Q69.77-2.31 68.32 0L68.32 0 63.74 0Q65.27-2.27 65.27-5.17L65.27-5.17 65.27-22.5 49.5-22.5 49.5-26.1 85.5-26.1 85.5-22.5ZM49.5-29.7L49.5-33.3 49.5-36.9 65.93-36.9 63.86-40.5 69.07-40.5 71.14-36.9 85.5-36.9 85.5-33.3 85.5-29.7 81-29.7 81-33.3 54-33.3 54-29.7 49.5-29.7ZM99.59-40.5L104.28-40.5 99.2-24.77 94.5-24.77 99.59-40.5ZM117.31 0L112.5 0 107.69 0 103.7-11.7 108.39-11.7 112.5 0 119.27-19.33 119.27-24.77 123.77-24.77 123.77-18.9 123.77-18.9 117.31 0ZM126.39-11.7L130.5 0 125.69 0 121.7-11.7 126.39-11.7ZM99.31 0L94.5 0 101.27-19.33 101.27-24.77 105.77-24.77 105.77-18.9 105.77-18.9 99.31 0ZM106.55-36.9L106.55-40.5 120.72-40.5 123.07-40.5 125.41-40.5 130.5-24.77 125.8-24.77 121.89-36.9 106.55-36.9ZM141.03-10.33L145.53-10.33 145.53-5.17Q145.53-2.27 144.08 0L144.08 0 139.5 0Q141.03-2.31 141.03-5.17L141.03-5.17 141.03-10.33ZM164.58-39.13L164.58-40.5 169.08-40.5 169.08-39.13 175.46-39.13 175.46-36.47 169.08-36.47 169.08-34.83 175.46-34.83 175.46-32.13 169.08-32.13 169.08-30.52 175.46-30.52 175.46-27.82 169.08-27.82 169.08-26.45 164.58-26.45 164.58-27.82 158.17-27.82 158.17-30.52 164.58-30.52 164.58-32.13 158.17-32.13 158.17-34.83 164.58-34.83 164.58-36.47 158.17-36.47 158.17-39.13 164.58-39.13ZM145.92-39.13L145.92-40.5 150.42-40.5 150.42-39.13 156.83-39.13 156.83-36.47 150.42-36.47 150.42-34.83 156.83-34.83 156.83-32.13 150.42-32.13 150.42-30.52 156.83-30.52 156.83-27.82 150.42-27.82 150.42-26.45 145.92-26.45 145.92-27.82 139.54-27.82 139.54-30.52 145.92-30.52 145.92-32.13 139.54-32.13 139.54-34.83 145.92-34.83 145.92-36.47 139.54-36.47 139.54-39.13 145.92-39.13ZM171.04-25.08L174.13-25.08 175.54-25.08 175.54-11.58 174.13-11.58 171.04-11.58 139.54-11.58 139.54-15.18 171.04-15.18 171.04-16.51 139.54-16.51 139.54-20.11 171.04-20.11 171.04-21.48 139.54-21.48 139.54-25.08 171.04-25.08ZM168.18 0L152.33 0Q150.1 0 148.52-1.58 146.93-3.17 146.93-5.4L146.93-5.4 146.93-10.33 151.43-10.33 151.43-3.6 168.18-3.6 168.18 0ZM157.62-10.13L157.62-10.33 162.12-10.33 162.12-10.13Q162.12-7.28 163.68-4.93L163.68-4.93 159.07-4.93Q157.62-7.24 157.62-10.13L157.62-10.13ZM169.51-5.17L169.51-10.33 174.01-10.33 174.01-5.17Q174.01-2.31 175.54 0L175.54 0 170.96 0Q169.51-2.27 169.51-5.17L169.51-5.17Z" transform="translate(-4.5, 40.5)"></path></g> <!----> <!----> <!----> <!----> <!----> <!----> <!----></g></g> <g data-gra="path-slogan" fill-rule="" class="tp-slogan iconsvg-slogansvg" fill="#333333" transform="translate(24.3699951171875,46.5)"><!----> <!----> <g transform="scale(1, 1)"><g transform="scale(1)"><path d="M0.89-8.58L2.06-8.58L2.06-1.03L6.42-1.03L6.42 0L0.89 0L0.89-8.58ZM7.73-8.58L8.91-8.58L8.91 0L7.73 0L7.73-8.58ZM16.55 0L15.70-2.48L12.23-2.48L11.34 0L10.17 0L13.41-8.58L14.72-8.58L17.81 0L16.55 0ZM13.97-7.31L12.61-3.52L15.28-3.52L14.02-7.31L13.97-7.31ZM25.64-4.27L25.64-4.27Q25.45-7.64 22.64-7.83L22.64-7.83Q19.78-7.69 19.64-4.27L19.64-4.27Q19.78-0.94 22.64-0.80L22.64-0.80Q25.45-0.98 25.64-4.27ZM26.81-4.27L26.81-4.27Q26.53 0 22.64 0.14L22.64 0.14Q18.70 0 18.42-4.27L18.42-4.27Q18.66-8.72 22.64-8.81L22.64-8.81Q26.53-8.67 26.81-4.27ZM29.58-8.58L33.89-1.64L33.89-8.58L35.02-8.58L35.02 0L33.70 0L29.34-6.94L29.30-6.94L29.30 0L28.17 0L28.17-8.58L29.58-8.58ZM36.98-8.58L38.16-8.58L38.16 0L36.98 0L36.98-8.58ZM41.53-8.58L45.84-1.64L45.84-8.58L46.97-8.58L46.97 0L45.66 0L41.30-6.94L41.25-6.94L41.25 0L40.13 0L40.13-8.58L41.53-8.58ZM55.17-3.61L52.55-3.61L52.55-4.59L56.30-4.59L56.30 0L55.55 0L55.27-1.08Q54.28 0.09 52.45 0.14L52.45 0.14Q50.72 0.14 49.78-0.75L49.78-0.75Q48.38-2.06 48.42-4.36L48.42-4.36Q48.75-8.63 52.50-8.81L52.50-8.81Q55.69-8.63 56.16-6L56.16-6L55.03-6Q54.56-7.78 52.45-7.83L52.45-7.83Q49.78-7.64 49.64-4.31L49.64-4.31Q49.64-0.75 52.50-0.75L52.50-0.75Q53.53-0.75 54.28-1.31L54.28-1.31Q55.22-2.06 55.17-3.61L55.17-3.61ZM62.25-1.03L67.55-1.03L67.55 0L60.80 0L60.80-0.94L66.05-7.59L61.17-7.59L61.17-8.58L67.55-8.58L67.55-7.59L62.25-1.03ZM69.84-5.06L74.34-5.06L74.34-8.58L75.52-8.58L75.52 0L74.34 0L74.34-3.98L69.84-3.98L69.84 0L68.67 0L68.67-8.58L69.84-8.58L69.84-5.06ZM84.09-4.27L84.09-4.27Q83.91-7.64 81.09-7.83L81.09-7.83Q78.23-7.69 78.09-4.27L78.09-4.27Q78.23-0.94 81.09-0.80L81.09-0.80Q83.91-0.98 84.09-4.27ZM85.27-4.27L85.27-4.27Q84.98 0 81.09 0.14L81.09 0.14Q77.16 0 76.88-4.27L76.88-4.27Q77.11-8.72 81.09-8.81L81.09-8.81Q84.98-8.67 85.27-4.27ZM88.03-8.58L92.34-1.64L92.34-8.58L93.47-8.58L93.47 0L92.16 0L87.80-6.94L87.75-6.94L87.75 0L86.63 0L86.63-8.58L88.03-8.58ZM101.67-3.61L99.05-3.61L99.05-4.59L102.80-4.59L102.80 0L102.05 0L101.77-1.08Q100.78 0.09 98.95 0.14L98.95 0.14Q97.22 0.14 96.28-0.75L96.28-0.75Q94.88-2.06 94.92-4.36L94.92-4.36Q95.25-8.63 99-8.81L99-8.81Q102.19-8.63 102.66-6L102.66-6L101.53-6Q101.06-7.78 98.95-7.83L98.95-7.83Q96.28-7.64 96.14-4.31L96.14-4.31Q96.14-0.75 99-0.75L99-0.75Q100.03-0.75 100.78-1.31L100.78-1.31Q101.72-2.06 101.67-3.61L101.67-3.61ZM105.75-5.06L110.25-5.06L110.25-8.58L111.42-8.58L111.42 0L110.25 0L110.25-3.98L105.75-3.98L105.75 0L104.58 0L104.58-8.58L105.75-8.58L105.75-5.06ZM118.88-3.19L118.88-8.58L120.05-8.58L120.05-3.05Q119.91 0.05 116.53 0.14L116.53 0.14Q113.39 0.05 113.25-2.86L113.25-2.86L113.25-8.58L114.42-8.58L114.42-3.19Q114.47-0.84 116.58-0.80L116.58-0.80Q118.88-0.84 118.88-3.19L118.88-3.19ZM122.02-8.58L123.19-8.58L123.19 0L122.02 0L122.02-8.58Z" transform="translate(-0.890625, 8.8125)"></path></g></g></g></g></g><defs v-gra="od"></defs></svg>